<?xml version="1.0" standalone="no"?>
<!DOCTYPE svg PUBLIC "-//W3C//DTD SVG 1.1//EN" "http://www.w3.org/Graphics/SVG/1.1/DTD/svg11.dtd" >
<svg xmlns="http://www.w3.org/2000/svg">
<metadata></metadata>
<defs>
<font id="governorregular" horiz-adv-x="1507" >
<font-face units-per-em="2048" ascent="1583" descent="-465" />
<missing-glyph horiz-adv-x="856" />
<glyph horiz-adv-x="2048" />
<glyph horiz-adv-x="2048" />
<glyph unicode="&#xd;" horiz-adv-x="2048" />
<glyph unicode=" "  horiz-adv-x="856" />
<glyph unicode="&#x09;" horiz-adv-x="856" />
<glyph unicode="&#xa0;" horiz-adv-x="856" />
<glyph unicode="A" horiz-adv-x="1449" d="M8 -2l537 1503h368l537 -1503h-340l-78 221h-606l-78 -221h-340zM537 528h385l-193 539z" />
<glyph unicode="B" horiz-adv-x="1423" d="M172 -2v1501h520q76 0 165 -25.5t165 -84t127 -151.5t51 -226q0 -41 -5 -69t-14.5 -51.5t-22 -43.5t-28.5 -47q78 -45 121 -108.5t62.5 -122t23.5 -101.5t4 -47q0 -109 -31.5 -181.5t-83.5 -119.5t-120 -72.5t-139.5 -37t-143 -12.5t-131.5 -1h-520zM494 319h225 q139 0 201.5 26t62.5 99q0 72 -62.5 96.5t-201.5 24.5h-225v-246zM494 897h198q26 0 58 -1h8q28 0 52 6q28 7 47.5 31.5t19.5 78.5q0 57 -23 90t-53.5 49t-61 20.5t-47.5 4.5h-198v-279z" />
<glyph unicode="C" horiz-adv-x="1536" d="M76 752q0 156 59.5 292t160.5 238t237.5 161.5t291.5 59.5q100 0 194.5 -25.5t176.5 -72.5t149.5 -113.5t116.5 -146.5l-229 -230q-25 61 -65 112.5t-93 88.5t-116.5 57.5t-133.5 20.5q-90 0 -171 -35t-140 -95t-94 -140t-35 -172t35 -172t94 -140.5t140 -95.5t171 -35 q70 0 133.5 20.5t116.5 57.5t93 87t65 112l229 -230q-49 -80 -116.5 -145.5t-149.5 -112.5t-176 -72.5t-195 -25.5q-156 0 -292 59.5t-237 162t-160.5 238.5t-59.5 292z" />
<glyph unicode="D" horiz-adv-x="1421" d="M174 -2v1505h154q66 0 140.5 -1t154 -9t159.5 -26.5t156 -51.5q68 -31 138.5 -81t127 -129t93 -190.5t36.5 -264.5q0 -188 -57 -316.5t-148.5 -212.5t-204 -129t-224 -66.5t-211 -24.5t-160.5 -3h-154zM483 311q145 10 248 40t168.5 83t95 131t29.5 185q0 125 -33 206.5 t-100.5 132t-168.5 73t-239 28.5v-879z" />
<glyph unicode="E" horiz-adv-x="1366" d="M201 0v1501h1013v-311h-702v-305h676v-314h-676v-258h702v-313h-1013z" />
<glyph unicode="F" horiz-adv-x="1280" d="M172 -2v1501h1008v-309h-699v-338h672v-309h-672v-545h-309z" />
<glyph unicode="G" horiz-adv-x="1536" d="M82 750q0 156 59.5 292t160.5 237t237.5 160.5t289.5 59.5q199 0 362 -93t265 -247l-225 -229q-53 117 -159.5 188.5t-242.5 71.5q-90 0 -169.5 -35t-139 -94.5t-94.5 -139t-35 -171.5t35 -172t94.5 -140.5t139 -95.5t169.5 -35q49 0 101.5 14.5t103.5 42t94 66.5t74 88 h-373v307h654v-440q-49 -86 -118 -156.5t-153 -122t-181 -79t-202 -27.5q-154 0 -290 59.5t-237 161t-160.5 237.5t-59.5 292z" />
<glyph unicode="H" d="M201 -4v1503h313v-639h522v639h316v-1503h-316v551h-522v-551h-313z" />
<glyph unicode="I" horiz-adv-x="655" d="M172 -2v1501h311v-1501h-311z" />
<glyph unicode="J" horiz-adv-x="1208" d="M82 102l240 240q20 -20 55 -23.5t76 -3.5q72 0 122 21.5t82.5 56.5t50 78t25.5 84t9 76t1 55v821h320v-821q0 -90 -28.5 -209t-98.5 -226.5t-187.5 -181t-295.5 -73.5q-98 0 -194.5 23.5t-176.5 82.5z" />
<glyph unicode="K" horiz-adv-x="1564" d="M203 -2v1505h307v-684q96 0 171 30t130 77t95 108.5t67 126.5q61 150 78 342h303q0 -115 -15.5 -212t-41 -178t-58.5 -145.5t-65 -113.5q-80 -117 -179 -188q96 0 170 -29t128.5 -76t91 -107.5t61.5 -121.5q55 -147 65 -334h-309q0 68 -14 120t-37 91t-51.5 65.5 t-59.5 44.5q-70 41 -159 48h-371v-369h-307z" />
<glyph unicode="L" horiz-adv-x="1280" d="M143 -2v1503h314v-1188h706v-315h-1020z" />
<glyph unicode="M" horiz-adv-x="1904" d="M205 -2v1505h332l405 -1028l399 1028h330v-1505h-319v610l-252 -610h-316l-260 620v-620h-319z" />
<glyph unicode="N" horiz-adv-x="1708" d="M203 -2v1505h352l647 -975v973h320v-1503h-353l-647 975v-975h-319z" />
<glyph unicode="O" horiz-adv-x="1662" d="M109 752q0 156 59 292t160.5 238t237.5 161.5t292 59.5t292 -59.5t237.5 -161.5t161 -238.5t59.5 -291.5q0 -156 -59.5 -292t-161 -238.5t-237.5 -162t-292 -59.5t-292 59.5t-237.5 162t-160.5 238.5t-59 292zM418 752q0 -92 34.5 -172t94 -140.5t139.5 -95.5t172 -35 q90 0 170 35t140.5 95.5t95 140t34.5 172.5q0 92 -34.5 172t-95 140t-140.5 95t-170 35q-92 0 -172 -35t-139.5 -95t-94 -140t-34.5 -172z" />
<glyph unicode="P" d="M205 -2v1505h729q74 0 160 -28.5t158.5 -92t121.5 -166t49 -249.5q0 -289 -166 -449q-53 -53 -110 -81.5t-107.5 -43t-86 -16.5t-48.5 -2h-391v-377h-309zM514 684h397h-2q23 0 57.5 8t66.5 38t55.5 85t23.5 152q0 72 -18.5 115.5t-46 67.5t-59.5 33t-56 9h-418v-508z " />
<glyph unicode="Q" horiz-adv-x="1906" d="M211 754q0 156 59.5 292t160.5 237t237.5 160.5t289.5 59.5q154 0 290 -59.5t237.5 -160.5t161 -237t59.5 -292q0 -121 -36 -229.5t-101 -200.5l108 -107l-217 -219l-114 115q-86 -51 -183.5 -80t-204.5 -29q-154 0 -290 59.5t-237 161t-160.5 237.5t-59.5 292zM518 754 q0 -92 35 -172t94.5 -139.5t140 -94.5t170.5 -35q82 0 158 29l-84 84l217 219l97 -98q51 98 51 207q0 92 -35 172t-94.5 140t-139 95t-170.5 35q-90 0 -170.5 -35t-140 -95t-94.5 -140t-35 -172z" />
<glyph unicode="R" horiz-adv-x="1533" d="M205 -2v1505h678q8 0 45 -3t89 -18.5t113.5 -46t118.5 -87.5q170 -170 170 -467q0 -117 -36 -203.5t-95 -145.5q59 -53 102.5 -119.5t71 -137t39.5 -142.5t12 -135h-153h-156q0 14 -3 48t-13 75t-30.5 84t-56.5 80t-89.5 59.5t-128.5 22.5h-371v-369h-307zM512 676h371 q25 0 63.5 7t75.5 28.5t62.5 61.5t25.5 108q0 106 -27.5 168.5t-65.5 94.5t-77 41t-59 9h-369v-518z" />
<glyph unicode="S" horiz-adv-x="1406" d="M125 438h311q0 -18 17.5 -42.5t49.5 -47t77 -38t102 -15.5q92 0 145.5 21.5t80 47t33.5 46.5l7 22q0 25 -3 49.5t-19 44.5q-29 35 -98.5 54.5t-172.5 19.5q-78 0 -140 14.5t-109.5 36t-82 48t-57.5 53.5q-45 49 -69.5 103t-34.5 102.5t-11 84t-1 52.5q0 14 4 45.5 t17 70.5t36.5 83t64.5 85q150 150 416 150q262 0 410 -154q51 -53 79.5 -110.5t41 -106.5t14.5 -84t2 -43l-311 10v-4q0 25 -8.5 56.5t-33 59.5t-71.5 46.5t-123 18.5q-74 0 -118 -14.5t-67.5 -35t-31.5 -43t-8 -37.5v-14l-2 -2q0 -20 4 -41q4 -16 10 -35.5t23 -36.5 q47 -47 157 -47q291 0 449 -126t158 -355q0 -66 -32 -143.5t-100.5 -145t-179 -112.5t-268.5 -45q-115 0 -215 36.5t-177 98t-121 144.5t-44 175z" />
<glyph unicode="T" horiz-adv-x="1236" d="M137 1190v311h1010v-311h-348v-1192h-314v1192h-348z" />
<glyph unicode="U" horiz-adv-x="1593" d="M201 684v817h313v-819q0 -16 2 -49t12.5 -74t28.5 -84t52 -80t83 -59.5t119 -22.5q104 0 162.5 49.5t88.5 113t37 125t7 83.5v817h313v-819q0 -59 -12 -132t-40 -148.5t-74 -148.5t-113.5 -129t-158.5 -90t-210 -34h-2q-123 0 -227.5 41t-182.5 121q-74 74 -113.5 159 t-58 161.5t-22.5 133t-4 68.5z" />
<glyph unicode="V" horiz-adv-x="1593" d="M80 1501h340l381 -1069l381 1069h340l-537 -1501h-369z" />
<glyph unicode="W" horiz-adv-x="1906" d="M96 1503h316l196 -848l205 848h317l175 -854l237 854h318l-420 -1505h-318l-164 809l-194 -809h-318z" />
<glyph unicode="X" horiz-adv-x="1734" d="M233 1501h361l289 -479l288 479h361l-469 -776l438 -723h-362l-256 424l-256 -424h-363l438 723z" />
<glyph unicode="Y" d="M117 1499h338l299 -727l299 727h333l-477 -1022v-475h-313v471z" />
<glyph unicode="Z" horiz-adv-x="1593" d="M209 -4l668 1200h-617v305h1139l-668 -1198h586v-307h-1108z" />
<glyph unicode="a" horiz-adv-x="1449" d="M8 -2l537 1503h368l537 -1503h-340l-78 221h-606l-78 -221h-340zM537 528h385l-193 539z" />
<glyph unicode="b" horiz-adv-x="1423" d="M172 -2v1501h520q76 0 165 -25.5t165 -84t127 -151.5t51 -226q0 -41 -5 -69t-14.5 -51.5t-22 -43.5t-28.5 -47q78 -45 121 -108.5t62.5 -122t23.5 -101.5t4 -47q0 -109 -31.5 -181.5t-83.5 -119.5t-120 -72.5t-139.5 -37t-143 -12.5t-131.5 -1h-520zM494 319h225 q139 0 201.5 26t62.5 99q0 72 -62.5 96.5t-201.5 24.5h-225v-246zM494 897h198q26 0 58 -1h8q28 0 52 6q28 7 47.5 31.5t19.5 78.5q0 57 -23 90t-53.5 49t-61 20.5t-47.5 4.5h-198v-279z" />
<glyph unicode="c" horiz-adv-x="1536" d="M76 752q0 156 59.5 292t160.5 238t237.5 161.5t291.5 59.5q100 0 194.5 -25.5t176.5 -72.5t149.5 -113.5t116.5 -146.5l-229 -230q-25 61 -65 112.5t-93 88.5t-116.5 57.5t-133.5 20.5q-90 0 -171 -35t-140 -95t-94 -140t-35 -172t35 -172t94 -140.5t140 -95.5t171 -35 q70 0 133.5 20.5t116.5 57.5t93 87t65 112l229 -230q-49 -80 -116.5 -145.5t-149.5 -112.5t-176 -72.5t-195 -25.5q-156 0 -292 59.5t-237 162t-160.5 238.5t-59.5 292z" />
<glyph unicode="d" horiz-adv-x="1421" d="M174 -2v1505h154q66 0 140.5 -1t154 -9t159.5 -26.5t156 -51.5q68 -31 138.5 -81t127 -129t93 -190.5t36.5 -264.5q0 -188 -57 -316.5t-148.5 -212.5t-204 -129t-224 -66.5t-211 -24.5t-160.5 -3h-154zM483 311q145 10 248 40t168.5 83t95 131t29.5 185q0 125 -33 206.5 t-100.5 132t-168.5 73t-239 28.5v-879z" />
<glyph unicode="e" horiz-adv-x="1366" d="M201 0v1501h1013v-311h-702v-305h676v-314h-676v-258h702v-313h-1013z" />
<glyph unicode="f" horiz-adv-x="1280" d="M172 -2v1501h1008v-309h-699v-338h672v-309h-672v-545h-309z" />
<glyph unicode="g" horiz-adv-x="1536" d="M82 750q0 156 59.5 292t160.5 237t237.5 160.5t289.5 59.5q199 0 362 -93t265 -247l-225 -229q-53 117 -159.5 188.5t-242.5 71.5q-90 0 -169.5 -35t-139 -94.5t-94.5 -139t-35 -171.5t35 -172t94.5 -140.5t139 -95.5t169.5 -35q49 0 101.5 14.5t103.5 42t94 66.5t74 88 h-373v307h654v-440q-49 -86 -118 -156.5t-153 -122t-181 -79t-202 -27.5q-154 0 -290 59.5t-237 161t-160.5 237.5t-59.5 292z" />
<glyph unicode="h" d="M201 -4v1503h313v-639h522v639h316v-1503h-316v551h-522v-551h-313z" />
<glyph unicode="i" horiz-adv-x="655" d="M172 -2v1501h311v-1501h-311z" />
<glyph unicode="j" horiz-adv-x="1208" d="M82 102l240 240q20 -20 55 -23.5t76 -3.5q72 0 122 21.5t82.5 56.5t50 78t25.5 84t9 76t1 55v821h320v-821q0 -90 -28.5 -209t-98.5 -226.5t-187.5 -181t-295.5 -73.5q-98 0 -194.5 23.5t-176.5 82.5z" />
<glyph unicode="k" horiz-adv-x="1564" d="M203 -2v1505h307v-684q96 0 171 30t130 77t95 108.5t67 126.5q61 150 78 342h303q0 -115 -15.5 -212t-41 -178t-58.5 -145.5t-65 -113.5q-80 -117 -179 -188q96 0 170 -29t128.5 -76t91 -107.5t61.5 -121.5q55 -147 65 -334h-309q0 68 -14 120t-37 91t-51.5 65.5 t-59.5 44.5q-70 41 -159 48h-371v-369h-307z" />
<glyph unicode="l" horiz-adv-x="1280" d="M143 -2v1503h314v-1188h706v-315h-1020z" />
<glyph unicode="m" horiz-adv-x="1904" d="M205 -2v1505h332l405 -1028l399 1028h330v-1505h-319v610l-252 -610h-316l-260 620v-620h-319z" />
<glyph unicode="n" horiz-adv-x="1708" d="M203 -2v1505h352l647 -975v973h320v-1503h-353l-647 975v-975h-319z" />
<glyph unicode="o" horiz-adv-x="1662" d="M109 752q0 156 59 292t160.5 238t237.5 161.5t292 59.5t292 -59.5t237.5 -161.5t161 -238.5t59.5 -291.5q0 -156 -59.5 -292t-161 -238.5t-237.5 -162t-292 -59.5t-292 59.5t-237.5 162t-160.5 238.5t-59 292zM418 752q0 -92 34.5 -172t94 -140.5t139.5 -95.5t172 -35 q90 0 170 35t140.5 95.5t95 140t34.5 172.5q0 92 -34.5 172t-95 140t-140.5 95t-170 35q-92 0 -172 -35t-139.5 -95t-94 -140t-34.5 -172z" />
<glyph unicode="p" d="M205 -2v1505h729q74 0 160 -28.5t158.5 -92t121.5 -166t49 -249.5q0 -289 -166 -449q-53 -53 -110 -81.5t-107.5 -43t-86 -16.5t-48.5 -2h-391v-377h-309zM514 684h397h-2q23 0 57.5 8t66.5 38t55.5 85t23.5 152q0 72 -18.5 115.5t-46 67.5t-59.5 33t-56 9h-418v-508z " />
<glyph unicode="q" horiz-adv-x="1906" d="M211 754q0 156 59.5 292t160.5 237t237.5 160.5t289.5 59.5q154 0 290 -59.5t237.5 -160.5t161 -237t59.5 -292q0 -121 -36 -229.5t-101 -200.5l108 -107l-217 -219l-114 115q-86 -51 -183.5 -80t-204.5 -29q-154 0 -290 59.5t-237 161t-160.5 237.5t-59.5 292zM518 754 q0 -92 35 -172t94.5 -139.5t140 -94.5t170.5 -35q82 0 158 29l-84 84l217 219l97 -98q51 98 51 207q0 92 -35 172t-94.5 140t-139 95t-170.5 35q-90 0 -170.5 -35t-140 -95t-94.5 -140t-35 -172z" />
<glyph unicode="r" horiz-adv-x="1533" d="M205 -2v1505h678q8 0 45 -3t89 -18.5t113.5 -46t118.5 -87.5q170 -170 170 -467q0 -117 -36 -203.5t-95 -145.5q59 -53 102.5 -119.5t71 -137t39.5 -142.5t12 -135h-153h-156q0 14 -3 48t-13 75t-30.5 84t-56.5 80t-89.5 59.5t-128.5 22.5h-371v-369h-307zM512 676h371 q25 0 63.5 7t75.5 28.5t62.5 61.5t25.5 108q0 106 -27.5 168.5t-65.5 94.5t-77 41t-59 9h-369v-518z" />
<glyph unicode="s" horiz-adv-x="1406" d="M125 438h311q0 -18 17.5 -42.5t49.5 -47t77 -38t102 -15.5q92 0 145.5 21.5t80 47t33.5 46.5l7 22q0 25 -3 49.5t-19 44.5q-29 35 -98.5 54.5t-172.5 19.5q-78 0 -140 14.5t-109.5 36t-82 48t-57.5 53.5q-45 49 -69.5 103t-34.5 102.5t-11 84t-1 52.5q0 14 4 45.5 t17 70.5t36.5 83t64.5 85q150 150 416 150q262 0 410 -154q51 -53 79.5 -110.5t41 -106.5t14.5 -84t2 -43l-311 10v-4q0 25 -8.5 56.5t-33 59.5t-71.5 46.5t-123 18.5q-74 0 -118 -14.5t-67.5 -35t-31.5 -43t-8 -37.5v-14l-2 -2q0 -20 4 -41q4 -16 10 -35.5t23 -36.5 q47 -47 157 -47q291 0 449 -126t158 -355q0 -66 -32 -143.5t-100.5 -145t-179 -112.5t-268.5 -45q-115 0 -215 36.5t-177 98t-121 144.5t-44 175z" />
<glyph unicode="t" horiz-adv-x="1236" d="M137 1190v311h1010v-311h-348v-1192h-314v1192h-348z" />
<glyph unicode="u" horiz-adv-x="1593" d="M201 684v817h313v-819q0 -16 2 -49t12.5 -74t28.5 -84t52 -80t83 -59.5t119 -22.5q104 0 162.5 49.5t88.5 113t37 125t7 83.5v817h313v-819q0 -59 -12 -132t-40 -148.5t-74 -148.5t-113.5 -129t-158.5 -90t-210 -34h-2q-123 0 -227.5 41t-182.5 121q-74 74 -113.5 159 t-58 161.5t-22.5 133t-4 68.5z" />
<glyph unicode="v" horiz-adv-x="1593" d="M80 1501h340l381 -1069l381 1069h340l-537 -1501h-369z" />
<glyph unicode="w" horiz-adv-x="1906" d="M96 1503h316l196 -848l205 848h317l175 -854l237 854h318l-420 -1505h-318l-164 809l-194 -809h-318z" />
<glyph unicode="x" horiz-adv-x="1734" d="M233 1501h361l289 -479l288 479h361l-469 -776l438 -723h-362l-256 424l-256 -424h-363l438 723z" />
<glyph unicode="y" d="M117 1499h338l299 -727l299 727h333l-477 -1022v-475h-313v471z" />
<glyph unicode="z" horiz-adv-x="1593" d="M209 -4l668 1200h-617v305h1139l-668 -1198h586v-307h-1108z" />
<glyph unicode="&#x2000;" horiz-adv-x="764" />
<glyph unicode="&#x2001;" horiz-adv-x="1528" />
<glyph unicode="&#x2002;" horiz-adv-x="764" />
<glyph unicode="&#x2003;" horiz-adv-x="1528" />
<glyph unicode="&#x2004;" horiz-adv-x="509" />
<glyph unicode="&#x2005;" horiz-adv-x="382" />
<glyph unicode="&#x2006;" horiz-adv-x="254" />
<glyph unicode="&#x2007;" horiz-adv-x="254" />
<glyph unicode="&#x2008;" horiz-adv-x="191" />
<glyph unicode="&#x2009;" horiz-adv-x="305" />
<glyph unicode="&#x200a;" horiz-adv-x="84" />
<glyph unicode="&#x202f;" horiz-adv-x="305" />
<glyph unicode="&#x205f;" horiz-adv-x="382" />
<glyph unicode="&#xe000;" horiz-adv-x="1505" d="M0 0v1505h1505v-1505h-1505z" />
</font>
</defs>
</svg>
